<?xml version="1.0" encoding="UTF-8"?>
<svg width="800px" height="600px" viewBox="0 0 800 600" version="1.1" xmlns="http://www.w3.org/2000/svg" xmlns:xlink="http://www.w3.org/1999/xlink">
    <title>Fleet Vehicles</title>
    <defs>
        <linearGradient x1="0%" y1="0%" x2="100%" y2="100%" id="bgGradient">
            <stop stop-color="#333333" offset="0%"></stop>
            <stop stop-color="#111111" offset="100%"></stop>
        </linearGradient>
    </defs>
    <g stroke="none" stroke-width="1" fill="none" fill-rule="evenodd">
        <rect fill="url(#bgGradient)" x="0" y="0" width="800" height="600"></rect>
        
        <!-- Road -->
        <rect fill="#222222" x="0" y="450" width="800" height="150"></rect>
        <rect fill="#444444" x="0" y="445" width="800" height="5"></rect>
        <rect fill="#444444" x="0" y="455" width="800" height="5"></rect>
        
        <!-- Road markings -->
        <rect fill="#FFFFFF" x="50" y="525" width="100" height="10"></rect>
        <rect fill="#FFFFFF" x="200" y="525" width="100" height="10"></rect>
        <rect fill="#FFFFFF" x="350" y="525" width="100" height="10"></rect>
        <rect fill="#FFFFFF" x="500" y="525" width="100" height="10"></rect>
        <rect fill="#FFFFFF" x="650" y="525" width="100" height="10"></rect>
        
        <!-- Sedan Car -->
        <g transform="translate(100, 400)">
            <!-- Car body -->
            <rect fill="#AF0F0F" x="0" y="0" width="150" height="40" rx="10"></rect>
            <rect fill="#CF1F1F" x="20" y="-20" width="110" height="25" rx="8"></rect>
            
            <!-- Windows -->
            <rect fill="#AADDFF" x="30" y="-15" width="90" height="18" rx="3"></rect>
            <line x1="75" y1="-15" x2="75" y2="3" stroke="#CF1F1F" stroke-width="2"></line>
            
            <!-- Wheels -->
            <circle fill="#111111" cx="30" cy="40" r="15"></circle>
            <circle fill="#333333" cx="30" cy="40" r="10"></circle>
            <circle fill="#111111" cx="120" cy="40" r="15"></circle>
            <circle fill="#333333" cx="120" cy="40" r="10"></circle>
            
            <!-- Headlights -->
            <rect fill="#FFFF99" x="0" y="5" width="10" height="10" rx="2"></rect>
            <rect fill="#FFAA33" x="140" y="5" width="10" height="10" rx="2"></rect>
        </g>
        
        <!-- SUV -->
        <g transform="translate(400, 390)">
            <!-- Car body -->
            <rect fill="#0F5FAF" x="0" y="0" width="180" height="50" rx="12"></rect>
            <rect fill="#1F6FCF" x="20" y="-40" width="140" height="45" rx="8"></rect>
            
            <!-- Windows -->
            <rect fill="#AADDFF" x="30" y="-35" width="120" height="35" rx="3"></rect>
            <line x1="65" y1="-35" x2="65" y2="0" stroke="#1F6FCF" stroke-width="2"></line>
            <line x1="105" y1="-35" x2="105" y2="0" stroke="#1F6FCF" stroke-width="2"></line>
            
            <!-- Wheels -->
            <circle fill="#111111" cx="40" cy="50" r="20"></circle>
            <circle fill="#333333" cx="40" cy="50" r="12"></circle>
            <circle fill="#111111" cx="140" cy="50" r="20"></circle>
            <circle fill="#333333" cx="140" cy="50" r="12"></circle>
            
            <!-- Headlights -->
            <rect fill="#FFFF99" x="0" y="10" width="12" height="12" rx="2"></rect>
            <rect fill="#FFAA33" x="168" y="10" width="12" height="12" rx="2"></rect>
        </g>
        
        <!-- Truck -->
        <g transform="translate(550, 370)">
            <!-- Truck body -->
            <rect fill="#5CAF0F" x="0" y="0" width="200" height="70" rx="12"></rect>
            <rect fill="#6CCF1F" x="0" y="-30" width="80" height="35" rx="8"></rect>
            
            <!-- Windows -->
            <rect fill="#AADDFF" x="10" y="-25" width="60" height="25" rx="3"></rect>
            <line x1="40" y1="-25" x2="40" y2="0" stroke="#6CCF1F" stroke-width="2"></line>
            
            <!-- Wheels -->
            <circle fill="#111111" cx="50" cy="70" r="20"></circle>
            <circle fill="#333333" cx="50" cy="70" r="12"></circle>
            <circle fill="#111111" cx="150" cy="70" r="20"></circle>
            <circle fill="#333333" cx="150" cy="70" r="12"></circle>
            <circle fill="#111111" cx="180" cy="70" r="20"></circle>
            <circle fill="#333333" cx="180" cy="70" r="12"></circle>
            
            <!-- Headlights -->
            <rect fill="#FFFF99" x="0" y="10" width="12" height="12" rx="2"></rect>
            <rect fill="#FFAA33" x="188" y="10" width="12" height="12" rx="2"></rect>
        </g>
        
        <!-- City skyline -->
        <g fill="#333333">
            <rect x="50" y="100" width="60" height="300"></rect>
            <rect x="120" y="150" width="40" height="250"></rect>
            <rect x="170" y="200" width="70" height="200"></rect>
            <rect x="250" y="100" width="50" height="300"></rect>
            <rect x="310" y="180" width="30" height="220"></rect>
            <rect x="350" y="90" width="80" height="310"></rect>
            <rect x="440" y="140" width="45" height="260"></rect>
            <rect x="500" y="200" width="65" height="200"></rect>
            <rect x="580" y="150" width="35" height="250"></rect>
            <rect x="625" y="100" width="75" height="300"></rect>
            <rect x="710" y="180" width="50" height="220"></rect>
        </g>
        
        <!-- Windows in buildings -->
        <g fill="#FFDD99">
            <rect x="60" y="120" width="10" height="10"></rect>
            <rect x="80" y="120" width="10" height="10"></rect>
            <rect x="60" y="150" width="10" height="10"></rect>
            <rect x="80" y="150" width="10" height="10"></rect>
            <rect x="60" y="180" width="10" height="10"></rect>
            <rect x="80" y="180" width="10" height="10"></rect>
            <rect x="60" y="210" width="10" height="10"></rect>
            <rect x="80" y="210" width="10" height="10"></rect>
            
            <rect x="130" y="170" width="10" height="10"></rect>
            <rect x="145" y="170" width="10" height="10"></rect>
            <rect x="130" y="200" width="10" height="10"></rect>
            <rect x="145" y="200" width="10" height="10"></rect>
            
            <rect x="185" y="220" width="10" height="10"></rect>
            <rect x="205" y="220" width="10" height="10"></rect>
            <rect x="185" y="250" width="10" height="10"></rect>
            <rect x="205" y="250" width="10" height="10"></rect>
            
            <rect x="260" y="120" width="10" height="10"></rect>
            <rect x="280" y="120" width="10" height="10"></rect>
            <rect x="260" y="150" width="10" height="10"></rect>
            <rect x="280" y="150" width="10" height="10"></rect>
            
            <rect x="315" y="200" width="10" height="10"></rect>
            <rect x="315" y="230" width="10" height="10"></rect>
            
            <rect x="370" y="110" width="10" height="10"></rect>
            <rect x="390" y="110" width="10" height="10"></rect>
            <rect x="370" y="140" width="10" height="10"></rect>
            <rect x="390" y="140" width="10" height="10"></rect>
            <rect x="370" y="170" width="10" height="10"></rect>
            <rect x="390" y="170" width="10" height="10"></rect>
            
            <rect x="450" y="160" width="10" height="10"></rect>
            <rect x="465" y="160" width="10" height="10"></rect>
            <rect x="450" y="190" width="10" height="10"></rect>
            <rect x="465" y="190" width="10" height="10"></rect>
            
            <rect x="510" y="220" width="10" height="10"></rect>
            <rect x="530" y="220" width="10" height="10"></rect>
            <rect x="550" y="220" width="10" height="10"></rect>
            <rect x="510" y="250" width="10" height="10"></rect>
            <rect x="530" y="250" width="10" height="10"></rect>
            <rect x="550" y="250" width="10" height="10"></rect>
            
            <rect x="590" y="170" width="10" height="10"></rect>
            <rect x="590" y="200" width="10" height="10"></rect>
            
            <rect x="640" y="120" width="10" height="10"></rect>
            <rect x="660" y="120" width="10" height="10"></rect>
            <rect x="680" y="120" width="10" height="10"></rect>
            <rect x="640" y="150" width="10" height="10"></rect>
            <rect x="660" y="150" width="10" height="10"></rect>
            <rect x="680" y="150" width="10" height="10"></rect>
            
            <rect x="720" y="200" width="10" height="10"></rect>
            <rect x="740" y="200" width="10" height="10"></rect>
            <rect x="720" y="230" width="10" height="10"></rect>
            <rect x="740" y="230" width="10" height="10"></rect>
        </g>
        
        <!-- Stars -->
        <g fill="#FFFFFF">
            <circle cx="100" cy="50" r="1.5"></circle>
            <circle cx="150" cy="70" r="1"></circle>
            <circle cx="200" cy="40" r="1.2"></circle>
            <circle cx="250" cy="65" r="1"></circle>
            <circle cx="300" cy="30" r="1.5"></circle>
            <circle cx="350" cy="50" r="1"></circle>
            <circle cx="400" cy="25" r="1.2"></circle>
            <circle cx="450" cy="60" r="1"></circle>
            <circle cx="500" cy="40" r="1.5"></circle>
            <circle cx="550" cy="70" r="1"></circle>
            <circle cx="600" cy="35" r="1.2"></circle>
            <circle cx="650" cy="55" r="1"></circle>
            <circle cx="700" cy="25" r="1.5"></circle>
            <circle cx="750" cy="45" r="1"></circle>
        </g>
        
        <!-- Moon -->
        <circle fill="#DDDDDD" cx="650" cy="80" r="30"></circle>
        <circle fill="#CCCCCC" cx="640" cy="70" r="5"></circle>
        <circle fill="#CCCCCC" cx="660" cy="90" r="7"></circle>
        <circle fill="#CCCCCC" cx="670" cy="75" r="4"></circle>
    </g>
</svg>